<?xml version="1.0" encoding="UTF-8"?><svg id="Layer_1" xmlns="http://www.w3.org/2000/svg" viewBox="0 0 316.34 597.76"><defs><style>.cls-1{fill:#f3f3f4;}.cls-2{fill:#f7f7f7;}.cls-3{fill:#f2f3f3;}.cls-4{fill:#f2f2f3;}.cls-5{fill:#67686b;}.cls-6{fill:#67696b;}.cls-7{fill:#eeeff0;}.cls-8{fill:#eeefef;}.cls-9{fill:#eeeeef;}.cls-10{fill:#ebeced;}.cls-11{fill:#ebebec;}.cls-12{fill:#f0f0f1;}.cls-13{fill:#eaebec;}.cls-14{fill:#eaebeb;}.cls-15{fill:#eaeaeb;}.cls-16{fill:#e9eaea;}.cls-17{fill:#e9eaeb;}.cls-18{fill:#e6e7e8;}.cls-19{fill:#f4f4f4;}.cls-20{fill:#f4f4f5;}.cls-21{fill:#f5f5f5;}.cls-22{fill:#e7e8e9;}.cls-23{fill:#e7e8e8;}.cls-24{fill:#e3e4e5;}.cls-25{fill:#e8e9ea;}.cls-26{fill:#e8e9e9;}.cls-27{fill:#edeeef;}.cls-28{fill:#ededee;}.cls-29{fill:#fff;}.cls-30{fill:#f0f1f1;}.cls-31{fill:#f1f1f2;}.cls-32{fill:#f1f2f2;}.cls-33{fill:#ececed;}.cls-34{fill:#e5e6e7;}.cls-35{fill:#e2e3e4;}.cls-36{fill:#eff0f1;}.cls-37{fill:#eff0f0;}.cls-38{fill:#7d7e81;}.cls-39{fill:#6b6c6f;}.cls-40{fill:#818285;}.cls-41{fill:#96989a;}.cls-42{fill:#96989b;}.cls-43{fill:#96999b;}.cls-44{fill:#6c6d70;}.cls-45{fill:#999c9e;}.cls-46{fill:#999b9d;}.cls-47{fill:#999b9e;}.cls-48{fill:#7c7e80;}.cls-49{fill:#97999c;}.cls-50{fill:#8b8d90;}.cls-51{fill:#929497;}.cls-52{fill:#a0a2a5;}.cls-53{fill:#929597;}.cls-54{fill:#9fa1a4;}.cls-55{fill:#848688;}.cls-56{fill:#b4b6b8;}.cls-57{fill:#b4b6b9;}.cls-58{fill:#b5b7b9;}.cls-59{fill:#b5b7ba;}.cls-60{fill:#b7b9bc;}.cls-61{fill:#b7b9bb;}.cls-62{fill:#8a8c8f;}.cls-63{fill:#b8babc;}.cls-64{fill:#b8babd;}.cls-65{fill:#9d9fa1;}.cls-66{fill:#9d9fa2;}.cls-67{fill:#9ea1a3;}.cls-68{fill:#9c9ea0;}.cls-69{fill:#a1a3a6;}.cls-70{fill:#8f9193;}.cls-71{fill:#919496;}.cls-72{fill:#c2c4c6;}.cls-73{fill:#909295;}.cls-74{fill:#b3b5b7;}.cls-75{fill:#b3b5b8;}.cls-76{fill:#c1c3c5;}.cls-77{fill:#b6b8ba;}.cls-78{fill:#737477;}.cls-79{fill:#8e9092;}.cls-80{fill:#8e9093;}.cls-81{fill:#b9bbbd;}.cls-82{fill:#cecfd1;}.cls-83{fill:#ced0d2;}.cls-84{fill:#cdcfd0;}.cls-85{fill:#cdcfd1;}.cls-86{fill:#a6a8ab;}.cls-87{fill:#a9abad;}.cls-88{fill:#a9abae;}.cls-89{fill:#b2b4b7;}.cls-90{fill:#b2b4b6;}.cls-91{fill:#a7a9ac;}.cls-92{fill:#a7a9ab;}.cls-93{fill:#b0b2b5;}.cls-94{fill:#b0b2b4;}.cls-95{fill:#adafb1;}.cls-96{fill:#d8dadb;}.cls-97{fill:#d8d9db;}.cls-98{fill:#a5a8aa;}.cls-99{fill:#b1b3b6;}.cls-100{fill:#b1b3b5;}.cls-101{fill:#a5a7aa;}.cls-102{fill:#aeb0b3;}.cls-103{fill:#bbbdbf;}.cls-104{fill:#aaacae;}.cls-105{fill:#a4a6a9;}.cls-106{fill:#c0c2c4;}.cls-107{fill:#bbbcbf;}.cls-108{fill:#bdbec1;}.cls-109{fill:#bdbfc1;}.cls-110{fill:#abadb0;}.cls-111{fill:#abadaf;}.cls-112{fill:#ccced0;}.cls-113{fill:#cccdcf;}.cls-114{fill:#cacccd;}.cls-115{fill:#c9cacc;}.cls-116{fill:#cfd0d2;}.cls-117{fill:#cfd1d2;}.cls-118{fill:#c7c8ca;}.cls-119{fill:#c7c9cb;}.cls-120{fill:#dedfe1;}.cls-121{fill:#dedfe0;}.cls-122{fill:#dddee0;}.cls-123{fill:#dddedf;}.cls-124{fill:#cbcdcf;}.cls-125{fill:#cbccce;}.cls-126{fill:#d2d4d5;}.cls-127{fill:#c3c5c7;}.cls-128{fill:#c3c4c6;}.cls-129{fill:#d6d7d9;}.cls-130{fill:#d6d7d8;}.cls-131{fill:#dfe1e2;}.cls-132{fill:#dbddde;}.cls-133{fill:#d9dbdc;}.cls-134{fill:#dadbdc;}.cls-135{fill:#d9dadc;}.cls-136{fill:#afb1b4;}.cls-137{fill:#d7d8da;}.cls-138{fill:#d3d4d6;}.cls-139{fill:#c5c6c8;}.cls-140{fill:#c6c8ca;}.cls-141{fill:#e1e2e3;}.cls-142{fill:#e1e2e4;}.cls-143{fill:#e0e1e2;}.cls-144{fill:#e0e1e3;}.cls-145{fill:#c8cacc;}.cls-146{fill:#c8c9cb;}.cls-147{fill:#d5d6d8;}.cls-148{fill:#dfe0e2;}.cls-149{fill:#dfe0e1;}.cls-150{fill:#a8aaad;}.cls-151{fill:#231f20;}.cls-152{fill:#424143;}.cls-153{fill:#434345;}.cls-154{fill:#404041;}.cls-155{fill:#414143;}.cls-156{fill:#414142;}.cls-157{fill:#3e3e3f;}.cls-158{fill:#3f3e40;}.cls-159{fill:#a3a5a7;}.cls-160{fill:#707274;}.cls-161{fill:#717375;}.cls-162{fill:#95979a;}.cls-163{fill:#464647;}.cls-164{fill:#535456;}.cls-165{fill:#9b9da0;}.cls-166{fill:#9a9c9f;}.cls-167{fill:#6e7072;}.cls-168{fill:#808284;}.cls-169{fill:#595a5c;}.cls-170{fill:#2b282a;}.cls-171{fill:#2c292b;}.cls-172{fill:#4a4a4b;}.cls-173{fill:#4a4a4c;}.cls-174{fill:#474749;}.cls-175{fill:#48484a;}.cls-176{fill:#5c5d60;}.cls-177{fill:#2f2d2f;}.cls-178{fill:#3a393a;}.cls-179{fill:#353335;}.cls-180{fill:#3a383a;}.cls-181{fill:#3b3a3c;}.cls-182{fill:#2e2b2c;}.cls-183{fill:#343234;}.cls-184{fill:#39383a;}.cls-185{fill:#58595b;}.cls-186{fill:#57585a;}.cls-187{fill:#828486;}.cls-188{fill:#4c4d4f;}.cls-189{fill:#616264;}.cls-190{fill:#757679;}.cls-191{fill:#5e5f62;}.cls-192{fill:#606164;}.cls-193{fill:#606163;}.cls-194{fill:#525254;}.cls-195{fill:#505052;}.cls-196{fill:#7a7c7e;}.cls-197{fill:#282526;}.cls-198{fill:#4e4e50;}</style></defs><path class="cls-40" d="M149.86,0c-.01,1.36-1.19,1.99-1.86,2.93-1.04,.24-1.8,.2-1.19-1.19l1.06-1.74h2Z"/><path class="cls-151" d="M243.86,203.01c-7.42,15.79-14.85,31.58-22.27,47.38-.7,1.48-1.34,2.99-2.01,4.49,.33,1.75-.54,2.97-1.8,4.01-.98,1.67-1.96,3.34-2.94,5.02-.39,.34-.81,.36-1.23,.06-.36-.6-.38-1.21-.22-1.51,.57,2.16-3.58,3.74-1.21,6.6,.13,.66,.16,1.29-.37,1.81,.08,.32,.02,.61-.16,.88-.05,1.38-.8,2.49-1.39,3.66-.59,3.13-2.47,5.71-3.62,8.6-.4,1.37-1.62,2.72-.04,4.1,1.34,.76,2.82,.52,4.26,.58,1.38-.3,3.63,1.7,3.9-1.51,.45-.19,.91-.33,1.4-.41,1.25-.15,2.48-.1,3.72,.1,3.99,1.44,8.27,.01,12.29,1.18,4.21-.01,8.42-.03,12.63-.04,2.39,.2,4.78-1.65,7.16,.03,1.33,1.24,2.8,1.73,4.53,.83,1.79-.64,3.58-1.16,5.4-.16,3.62,.01,7.24,.02,10.87,.03,1.36-.61,2.71-.48,4.06,.03l12.95,1.14c1.85,.35,3.68,.8,5.56,.97,1.24,.05,2.5-.08,3.68,.46,2.46,1.94,5.49,.8,8.18,1.49,3.95,1.63,1.73,3.9,.62,6.05-4.38,6.91-8.77,13.81-13.15,20.72-.55,1.15-.73,2.56-2.15,3.12l-8.78,12.12c-1.61,2.35-2.24,5.4-4.96,6.96l.11,.15c-1.11,2.35-2.26,4.67-4.13,6.54-4.79,7.03-10.54,13.27-16.05,19.73-1.35,1.58-2.05,3.73-3.04,5.62-.07,1.07-1.15,1.37-1.64,2.12-3.09,4.58-6.18,9.16-9.27,13.74-2.1,4.39-4.59,8.48-8.83,11.18-3.09,3.04-5.58,6.55-8.01,10.11-.68,1.05-.56,2.46-1.48,3.41-1.06,1.59-1.71,3.52-3.65,4.37l.04,.03c-1.12,2.48-2.92,4.38-5.09,5.96-.94,1.39-1.89,2.78-2.83,4.17-.71,.97-.46,2.36-1.38,3.24-.44,.68-.85,1.39-1.29,2.07-.95,1.36-2.27,2.43-3.08,3.91-1.03,1.64-2.27,3.12-3.47,4.63-.46,.47-1.08,.69-1.59,1.1-.3,.13-.42,.35-.38,.68-.25,1.97-1.87,2.91-3.11,4.14-1.6,.92-2.04,2.67-2.95,4.09-.08,.49-.34,.83-.8,1.01-29.11,40.29-58.23,80.56-87.31,120.87-3.6,4.99-7.12,10.04-11.58,14.33-3.34,2.94-5.8,6.91-10.13,8.71-.24-.35-.78-.81-.69-1.05,3.58-10.47,5.69-21.26,7.58-32.14,.42-2.44,1.83-4.96,2.34-7.6,.97-2.25-.47-5.2,2.03-7.01,8.38-22.21,14.08-45.24,20.66-68,2.58-8.91,4.92-17.89,7.37-26.83,.43-2.14,.42-4.4,1.73-6.29l.09,.06c1.12-1.1-.28-2.89,1.07-3.92,6.11-20.82,12.23-41.64,18.31-62.47,.45-1.53,1.16-3.23-.51-4.58-9.71-.2-19.44-1.22-29.12,.07-3.33,.44-6.64,.44-9.93,.32-4.49-.17-8.92,.65-13.38,.57-1.16,.1-2.31-.44-3.47-.03-6.28,.99-12.55-.26-18.82-.11-2.68-.95-5.52,.16-8.21-.67-1.58-.03-3.17-.05-4.75-.08-.7,.77-1.43,1.46-2.61,1.04-2.56-.34-3.75-1.54-2.67-4.19,.1-.28,.18-.56,.24-.86,.74-1.34-.32-3.41,1.71-4.23,.77-1.84,1.54-3.68,2.31-5.53,.1-2.97,1.5-5.43,3.04-7.84,1.8-3,2.82-6.34,4.06-9.59,.8-1.95,1.76-3.83,2.27-5.89,1.71-3.94,2.7-8.15,4.38-12.1,.68-1.54,1.7-2.89,2.41-4.42,2.45-3.88,3.65-8.33,5.68-12.4,.32,0,.63-.07,.92-.2,4.08,1.35,.58,4.53,1.55,6.29,.58-2.47,.26-5.33,.53-8.16,.32-5.77,3.78-10.43,5.61-15.66,1.56-4.49,3.63-8.8,5.48-13.18,1.26-4.06,2.44-8.15,3.76-12.19,.19-.21,.28-.46,.26-.75,1.1-2.04,2.66-4.1-.21-6.01-.35-.26-.7-.53-1.05-.78-1.78-1.29-3.82-1.19-5.86-1.12-2.3,.04-4.59,.01-6.89,.09-2.43-.11-4.81,.4-7.22,.6-1.13-.03-2.23,.25-3.35,.37-8.02,.34-16-.26-23.95-1.14-1.64-.42-3.28-.75-4.69,.66-3.16,1.52-6.36-.11-9.54,.13-2.21-.02-4.43-.11-6.56,.66-.48,.15-.96,.26-1.45,.36-2.75,.32-5.43,1.03-8.17,1.47-3.44,.26-6.92-.51-10.33,.44l-2.75,.03c-1.47-1.27-1.27-3.18-1.87-4.79-.45-1.71-.49-3.43-.16-5.17-1.77-2.81,2.01-3.18,2.34-5.39,.74-4.92,2.38-9.71,3.66-14.55,1.05-3,1.08-6.32,2.79-9.12,1-1.88,.54-4.27,2.07-5.96,.88-.71,1.02-1.75,1.2-2.76,.36-1.48,1.74-2.38,2.14-3.84,.76-2.77-.17-5.88,1.72-8.42l1.11-1.83c2-1.91,2.17-4.61,2.98-7.03,.22-.63,.54-1.2,.91-1.75,.83-1.12,.78-2.48,.96-3.77,.59-2.74,1.16-5.47,2.14-8.1,.49-1.47,1.92-2.49,1.98-4.16-.08-1.27,1.81-1.92,1.06-3.4,.09-.3,.06-.59-.09-.87,2.46-3.34,4.24-6.99,4.97-11.1-.4-2.12,1.28-3.29,2.17-4.82,.72-.9,.89-1.97,.88-3.09,4.14-11.26,8.77-22.35,12.12-33.89,.47-1.43,.67-2.97,1.81-4.11l.98-2.01c1.09-1.48,.01-3.86,2.06-4.94,.21-7,3.67-13.13,5.25-19.77,.5-2.1,.98-4.13,.8-6.28-.14-1.98,.57-3.67,1.8-5.17,1.88-8.71,1.21-18.37,9.27-24.77,.81-1.01,1.77-1.79,3.09-2.03,1.68-.33,3.39-.22,5.08-.32,.93-.1,1.87-.05,2.8-.07,3.65,1.28,7.39,1.14,11.21,1,25.15-.9,50.31-1.66,75.46-2.47,4.12,1.22,8.28-1.06,12.39,.18-.39,3.14,1.71,1.45,2.89,1.44,1.31-.01,2.6-.24,3.87-.62,1.27-.14,2.56-.1,3.82-.34,.52-.05,1.03-.02,1.53,.09,5.4,1.26,10.92,1.34,16.42,1.66,.97,.06,1.55,.45,1.39,1.52-.44,1.31-.87,2.62-1.31,3.93-.17,.41-.41,.77-.72,1.09-7.74,15.63-15.49,31.26-23.23,46.89-.5,2.5-.58,5.19-2.99,6.86-1.97,2.8-1.79,6.8-4.97,8.92-1.5,.33-.21,1.7-.86,2.35-2.44,7.71-6.67,14.59-9.96,21.91-.74,1.64-1.42,3.3-2.12,4.95-.04,2.7-1.37,4.9-2.67,7.14-1.55,2.66-3.36,5.24-3.4,8.51-.27,1.4-1.34,2.33-2.07,3.47-.47,.72-.87,1.48-1.25,2.25-.29,.88-1.02,1.85,.54,2.31,.91,.08,1.8,.01,2.7,0,3.38-.18,6.79,.39,10.11-.63,1.34-.32,2.7-.38,4.07-.43,3.77,.17,7.53-1.26,11.31-.12,.78-.04,1.53-.37,2.33-.3,1.74,.27,3.41,.99,5.23,.8,1.28,.06,2.53-.14,3.76-.51,2.84-.31,5.74,.59,8.54-.4,4.5,.4,8.94-.22,13.39-.75,3.15-.37,6.29-.62,9.29,.77,.38,.51,.31,.93-.23,1.27-2.94,1.16-6.05,.25-9.04,.78-.62,.18-1.24,.41-1.19,.43,.56,.12,1.73-.75,2.98-.57,2.65-.04,5.31,.18,7.91-.56,2.31,.12,3.88,1.68,5.63,2.89,1.29,1.5,2.59,2.99,3.96,4.41,.21,1.49,1.15,2.64,1.83,3.92,.16,.41,.27,.84,.37,1.27,.24,1.09,.58,2.16,.86,3.24,.3,1.88,1.25,3.53,1.89,5.3,.16,.5,.23,1,.26,1.52-.43,2.35-.47,4.75-1.09,7.06Z"/><path class="cls-158" d="M93.08,39.62c-.47-.68-.89-1.89-1.43-1.95-6.1-.64-4.83-5.85-6.07-9.51-1.25-3.7,2.65-5.17,3.6-8.02,.86-2.58,8.49-2.64,11.12-.71,7.64,5.62,6.88,14.48-1.61,18.59-1.02,.5-2.26,.61-2.9,1.74-.96,1-1.88,1.2-2.71-.15Z"/><path class="cls-155" d="M47.94,121.06c-.55,3.41-.22,7.4-5.39,6.76-3.75-.47-4.51-3.63-4.75-6.48-.25-3,1.76-5.13,4.77-5.28,3.27-.16,5.05,1.91,5.37,5Z"/><path class="cls-22" d="M235.91,400.91c2.56-4.03,5.5-7.76,8.83-11.18,.89,1.59,1.48,3.24,1.12,5.1,.25,1.53,1.25,2.7,1.94,4.03,.05,2.3,.34,4.74-3.01,4.98-.63-.9-.68,.03-.94,.3-3.86,1.9-5.18-2.44-7.94-3.23Z"/><path class="cls-172" d="M124.36,33.5c-1.6,6.62-3.4,8.12-8.07,7.2-3.27-.65-3.93-2.63-3.29-5.43,.87-3.83,2.1-4,11.36-1.77Z"/><path class="cls-171" d="M249.9,170.13c2.28-.12,4.57-.24,6.85-.36,1.06-.7,2.07-.54,3.05,.18-.04,2.51-2.21,3.91-3.11,5.97-1.91,.61-2.79,2.11-3.31,3.89-.47,1.61-1.04,3.1-2.98,3.42-1.9-.79-1.72-2.75-2.38-4.24-.15-.48-.25-.96-.32-1.46,.53-2.53-2.76-6.21,2.21-7.4Z"/><path class="cls-134" d="M93.99,378.02c17.26-.39,34.52-.78,51.78-1.16,.85-.02,1.66,.1,2.01,1.06-14.91,.36-29.83,.75-44.74,1.06-1.94,.04-3.59,.38-4.73,2.09-.63,.93-1.17,2.25-2.64,1.45-1.6-.87,1.59-1.76,.08-2.73-.36-.81-2.43,.08-1.75-1.76Z"/><path class="cls-188" d="M14.71,120.14c.57-2.35,.2-5.18,3.69-4.94,3.05,.21,4.84,1.77,4.87,5.02,.03,3.25-2.45,4.36-4.8,4.52-2.9,.2-3.47-2.38-3.76-4.59Z"/><path class="cls-27" d="M205.87,283.92c1.36-2.98,2.73-5.96,4.09-8.94,.38-.44,.68-.39,.9,.15,.82,3.13,4.03,3.79,5.96,5.78,.46,1.94-1.1,1.63-2,1.56-2.69-.2-1.66,1.44-1.48,2.7-.08,.46-.29,.84-.62,1.17-2.17,1.22-4.04,1.42-4.97-1.47-.34-.12-.68-.24-1.02-.33-.35-.12-.64-.33-.86-.63Z"/><path class="cls-12" d="M62.93,356.91l-3.85,7.32c-4.36-5.77,.83-9.74,2.69-14.35,.77-.59,1.35-1.94,2.6-.67,.91,2.83-.86,5.15-1.43,7.7Z"/><path class="cls-27" d="M9.76,263.84c3.56-1.85,7.4-.58,11.09-1.01,2.53-.69,5.11-.96,7.72-.91,1.19-.06,2.37-.13,3.28,.86,.95,1.25,2.12,2.06,3.78,1.8,1.19-.19,2.09,.21,1.93,1.47-.18,1.39-1.32,2.1-2.53,1.32-2.66-1.71-7.04,1.13-8.67-3.34-.1-.27-1.56-.04-2.38-.04-.7,.56-1.39,.56-2.09,0-4.04-.05-8.09-.09-12.13-.14Z"/><path class="cls-143" d="M74.89,259.88l3.04-.03c.47,.89,2.4,.25,2.08,1.97-2.42-.35-4.32,.94-6.3,1.98-1.51-.82-3.15-.2-5.04-.5,1.62,.44,3.13-.47,4.29,.73-2.7,1.25-5.39,1.49-8.04-.12-1.65-.57-3.61,.29-5.09-1.09-.34-.33-.67-.66-1.01-.99,.63-2.5,2.64-1.21,4.02-1.36,4-.45,8.08,.64,12.05-.59Z"/><path class="cls-159" d="M240.93,185.73c0-.24,0-.48,0-.72,.47-1.66,2.3-2.33,2.83-3.94,.28-.6,.62-1.15,1.18-1.53,.66-.26,1.31-.24,1.95,.08,1.5,1.32,1.7,3.04,1.51,4.88,.03,.62,.1,1.24,.23,1.85,.26,1.21,.48,2.43,.42,3.68,.5,2.44-.73,4.23-2.22,5.93-.87-.47-1.27-1.28-1.58-2.16-.52-3.18-2.09-5.8-4.33-8.07Z"/><path class="cls-164" d="M52.8,561.73c-3.93,2.84-6.45,1.15-7.85-2.75-.93-2.6-1.61-5.57,2.71-6.03,.92,.59,1.38,1.58,2.11,2.34,.63,1.1,1.18,2.26,2.13,3.15,.71,.98,2.35,1.72,.89,3.29Z"/><path class="cls-81" d="M214.01,53.04c-.07-.15-.16-.44-.21-.43-6.14,.85-11.96-1.64-18-1.78,.06-1.5,.97-1.43,2.03-1.1,3.75,1.06,7.33-1.42,11.07-.51,1.56,.72,3.36-.26,4.88,.71,.31,1.02,1.84,1.94,.23,3.1Z"/><path class="cls-135" d="M73.9,328.89c-1.22,4.25-2.68,8.41-4.82,12.31-.64-.29-1.09-.76-1.42-1.37,.43-3.41,2.94-6.36,2.24-10.02-.31-.26-.6-.53-.88-.82-.03-.33-.05-.66-.05-.99,1.1-.84,2.05-2.06,3.72-1.51,1.05,.48,.65,1.68,1.21,2.41Z"/><path class="cls-175" d="M85.04,50.59c-.36,1.04-1.19,1.34-2.19,1.35-1.94-.78-3.88-.69-5.83-.06l-2.95,1.13c.06-2.36,.2-5.36,2.85-5.59,2.85-.24,6.36-.26,8.12,3.17Z"/><path class="cls-12" d="M212.96,286.04q-3.12-4.22,3.86-5.14c1.33,1.05,1.87,2.49,2.02,4.13,1.19,3.36-2.05,1.79-3.04,2.73l-.96,.06c-.69-.52-1.54-.89-1.89-1.77Z"/><path class="cls-49" d="M74.89,259.88c-2.77,2.18-5.99,.58-8.96,1.08-2.35,.4-4.9-.74-7.11,.87-1.95-.02-3.9-.05-5.85-.07-1.33-.66-2.99-.47-4.13-1.61-.19-.42-.17-.82,.09-1.2,8.65,.31,17.31,.62,25.96,.93Z"/><path class="cls-144" d="M160.99,165.92c.98-5.89,4.28-10.78,6.85-15.98,.64,1.29,2.08,.75,2.99,1.3-3.44,3.22-5.81,7.17-7.61,11.44-.94,2.25,.21,3.45,2.63,3.38,.21,1.91-1.46,1.7-2.49,2.22-.44,.08-.86,.05-1.28-.1-.95-.47-.71-1.51-1.08-2.25Z"/><path class="cls-32" d="M72.91,326.85c-1.31,.38-2.63,.76-3.94,1.15,1.9-1.66-.08-5.85,3.97-6.11,.9-1.7,1.05-3.85,2.95-4.95,.37-.96,1.01-1.65,1.97-2.04,2.16-.01,1.21,1.44,.96,2.31-.93,3.28-2.48,6.27-4.75,8.85-.33,.36-.72,.62-1.17,.81Z"/><path class="cls-11" d="M72.91,325.89c2.7-3.2,5.33-6.43,4.95-11.01-.58-1.33-1.69-2.66-.04-4.02,1.53,1.14,1.18-1.17,2.1-1.14-.05-.27-.07-.54-.06-.81l.07-.04c1.22,.76,.96,1.98,.99,3.11,.62,5.14-2.77,8.81-4.78,12.98-.99,.61-1.69,2.21-3.23,.93Z"/><path class="cls-78" d="M66.96,553.37c1.29-3.8-6.34-.96-3.52-5.46,.57-.9,2.54-2.81,4.48-1.09,2.62,2.32,.86,4.28-.96,6.55Z"/><path class="cls-149" d="M87.81,597.76c3.15-3.17,5.59-7.16,10.13-8.71-1.76,4.78-4.44,8.5-10.13,8.71Z"/><path class="cls-181" d="M250.71,183.2c.52-1.44,1.49-2.55,1.57-4.38,.07-1.68,1.54-4.06,4.42-2.9-1.03,3.64-2.66,6.99-4.84,10.07-1.37,.38-1.54-.58-1.71-1.54,.05-.48,.24-.9,.57-1.25Z"/><path class="cls-137" d="M37.77,161.97c-1.62,3.83-1.38,8.64-5.81,10.98h-.49l2.08-8.06c.52,.26,.64,2.42,1.63,.37,.34-.71,.47-1.52,.7-2.29,.55-.48,.81-1.51,1.89-1Z"/><path class="cls-141" d="M67.66,339.83l1.42,1.37c.17,2.2-.74,4.06-1.86,5.85-1.26,.29-.84,3.47-3.2,1.86-.75,.32-1.5,.65-2.25,.97,1.13-3.84,4.99-6.07,5.9-10.05Z"/><path class="cls-18" d="M298.62,292.05l-3.82-.19c-.6-.64-.64-1.29-.03-1.95,5.35,.56,10.97-1.1,16,2.01-2.12,1.67-4.61,.71-6.93,.97-1.77-.06-3.61,.24-5.21-.85Z"/><path class="cls-140" d="M98.91,263.83c-3.74-.21-7.79,1.46-11.01-1.85-.35-.33-.44-.73-.31-1.18,.92-1.47,2.26-1.07,3.57-.8,.42,.09,.82,.24,1.2,.41,1.35,.89,2.69,.53,4.02-.08,.87,.07,1.76,.04,2.55,.48l-.1,.26c.79,.9,.94,1.82,.07,2.76Z"/><path class="cls-110" d="M25.81,194.86c-1.16,2.45,.89,6.59-3.79,7.18-.13-3.2,.3-6.29,1.76-9.19,.56,0,.97,.29,1.34,.66,.36,.39,.4,.93,.68,1.36Z"/><path class="cls-100" d="M254,375.99c.22-.95,.6-1.79,1.64-2.12,.98-.04,1.96-.13,2.93-.1,1.04,.03,1.96,.4,2.08,1.62,.13,1.25-.52,2.21-1.42,2.96-.96,.79-1.83,.25-2.64-.36-.87-.66-1.2-2.02-2.59-2Z"/><path class="cls-87" d="M29.91,86.36c.11,2-.96,3.03-2.53,3.23-1.56,.2-2.35-1.01-2.47-2.43-.14-1.61,.47-3.02,2.23-3.25,1.82-.24,2.59,.99,2.78,2.45Z"/><path class="cls-98" d="M87.99,261.1c-.07,.29-.1,.58-.09,.88-2.64,.5-5.28,.74-7.89-.16-.69-.66-1.38-1.31-2.07-1.97,2.23-.92,4.55-1.08,6.91-.73,1.13,.53,2.82,.17,3.15,1.98Z"/><path class="cls-93" d="M51.53,273.6c-.55,1.29-.11,3.21-2.07,2.92-1.41-.21-3.01-.92-3.05-2.66-.03-1.72,1.43-2.59,2.91-2.72,1.69-.15,1.89,1.37,2.21,2.46Z"/><path class="cls-110" d="M228.47,474.23c-.48,1.5-1.13,2.81-2.95,2.76-1.55-.04-2.55-1.06-2.53-2.44,.02-2.11,1.8-2.47,3.46-2.51,1.38-.03,1.96,.92,2.02,2.19Z"/><path class="cls-148" d="M175.73,173.79c-1.29,.05-2.59,.1-3.88,.14-2.49-.17-5.26,1.06-7.3-1.44,.06-.55,.33-.94,.82-1.19,3.07-.72,6.2,1.02,9.25-.23,1.43-.52,2.89-2.21,4.24,.11-.04,2.08-2.05,1.79-3.14,2.61Z"/><path class="cls-193" d="M30.06,72.91c2.73,2.39-.7,3.11-1.43,4.14-1.45,2.04-2.21-.43-3.3-1.05-2.65-1.51-.26-2.17,.45-3.12,1.43-.54,2.87-.9,4.29,.03Z"/><path class="cls-57" d="M184.7,50.06c-4.3-.72-8.76,.76-12.99-.94,5.03-.45,10.04-2.12,15.12-.27,.32,.47,.3,.93-.04,1.38-.73,.39-1.43,.38-2.09-.16Z"/><path class="cls-141" d="M212.8,431.85c.33-1.22,1.06-2.16,2.08-2.88,3.52,1.25,4.5,3.52,2.75,6.87-.57,1.1-1.23,.73-1.86,.03-.05-2.04-2.25-2.49-2.98-4.02Z"/><path class="cls-130" d="M30.13,180.96c-.78,2.91-1.56,5.83-2.33,8.74-1.86,.41-1.71-1.02-1.93-2.11-.26-2.52,.46-4.73,2.11-6.65,.72-.6,1.44-.54,2.15,.02Z"/><path class="cls-40" d="M175.73,173.79c1.05-.87,2.09-1.74,3.14-2.61,3.05-.41,6.05-.25,8.96,.82,.22,.15,.31,.32,.28,.51-.04,.2-.09,.3-.15,.3-4.08,.33-8.15,.66-12.23,.98Z"/><path class="cls-117" d="M55.92,553.92c2.37,2.63,3.46,5.27,0,7.91-1.09-1.07-1.97-2.31-2.85-3.55-.38-.59-.65-1.22-.74-1.92-.08-2.69,2.39-1.63,3.59-2.43Z"/><path class="cls-12" d="M232.15,288.07c-4.11-.28-8.24,1.22-12.34-.14-.52-1.1,.09-1.65,1.01-2.02,3.85,.31,7.74,.47,11.33,2.16Z"/><path class="cls-111" d="M261.88,288.74c-2.09,0-3.88,1.76-6.09,1.01-1.06-.06-1.74-.8-2.52-1.38-.55-.68-1.86-.94-1.24-2.26,3.55-.11,7,.12,9.85,2.63Z"/><path class="cls-56" d="M272.92,518c0,1.75-.95,2.7-2.71,2.74-1.2,.02-2.44-.27-2.42-1.81,.02-1.78,1.32-2.61,2.85-2.93,1.39-.29,2.13,.56,2.29,2Z"/><path class="cls-75" d="M222.02,490.02c1.55,.09,2.47,.92,2.71,2.36,.27,1.61-.59,2.49-2.16,2.55-1.49,.05-2.54-.73-2.74-2.22-.22-1.59,.85-2.31,2.19-2.69Z"/><path class="cls-189" d="M185.77,111.81c.67-2.43,1.22-4.91,2.99-6.86,2.84,5.52,2.46,6.4-2.99,6.86Z"/><path class="cls-26" d="M158.03,170.93c-.1-.81,.02-1.53,.75-2.03,1.11-1.32,2.72-.45,4.02-.94h.06c1.03-.68,2.05-.74,3.05,.05-.19,2.17,2.18,1.66,2.96,2.81-3.12,.48-6.12,1.99-9.4,1.12-.58-.2-1.06-.54-1.44-1.01Z"/><path class="cls-101" d="M23,320.31c-.03,1.58-.84,2.54-2.4,2.6-1.57,.06-2.53-.98-2.65-2.42-.14-1.55,.9-2.49,2.42-2.57,1.57-.08,2.42,.86,2.63,2.39Z"/><path class="cls-179" d="M20.91,203.87c-.36,3.04,.8,6.29-1.2,9.11-1.98-.25-1.47-1.85-1.67-3.07,1.31-1.85-2.16-5.96,2.87-6.05Z"/><path class="cls-92" d="M68.47,42.35c1.52-.12,1.45,1.01,1.44,1.95-.04,2.02-1.2,2.94-3.15,2.87-1.14-.04-1.82-.69-1.7-1.89,.2-2.03,1.79-2.51,3.41-2.94Z"/><path class="cls-126" d="M37.77,161.97l-1.89,1c-2.12-3.83-.26-5.81,3.26-7.01,.81-.07,1.37,.06,.84,1.05-.19,1.9-2.62,2.8-2.21,4.96Z"/><path class="cls-103" d="M13.77,224.85c-.18,3.27-1.28,6.26-2.79,9.12q-.8-7.95,2.79-9.12Z"/><path class="cls-114" d="M98.77,268.87c-.13,4.41-1.5,8.44-3.76,12.19-.24-4.53,1.3-8.5,3.76-12.19Z"/><path class="cls-34" d="M204.86,442.87c.9-2.04,1.92-3.99,3.85-5.27,.65,.17,.81,.82,1.18,1.25,2.41,2.07,1.13,3.17-1.05,4.03-1.33-.23-2.66,1.25-3.98-.02Z"/><path class="cls-37" d="M236.81,424.88c-.28,.32-.56,.64-.83,.96-1.18,1-2.97,.73-4.04,1.96-1.81-.91-4.11-.88-6.29-3.22,4.32,.11,8.21,1.91,10.91-1.75,.77,.6,.85,1.29,.25,2.06Z"/><path class="cls-119" d="M4.99,253.91c1.48,1.33,.9,3.14,1.09,4.77,.47,.9,0,1.37-.78,1.69-.53,.09-.98-.06-1.35-.45-2.72-2.54-1.61-4.41,1.04-6.01Z"/><path class="cls-89" d="M83.92,309.91c1.65,3.37,.55,6.53-.57,10.02-1.44-2.81,.98-5.89-1.51-8.15,0-1.4,.75-1.96,2.08-1.87Z"/><path class="cls-46" d="M35.94,260.08c3.28-.8,6.68,2.64,9.91-.28,.46-.28,.9-.23,1.31,.1,.36,.72,.34,1.4-.25,2.01-3.66,0-7.33-.02-10.99-.02-.58-.61-.59-1.21,.02-1.81Z"/><path class="cls-132" d="M55.92,553.92c-.77,1.19-3.07,.68-3.04,2.75-1.59,.96-2.7-.19-3.92-.87l-1.29-2.85c2.66,1.1,5.66-.7,8.25,.97Z"/><path class="cls-108" d="M186.85,49.95l-.03-1.1c2.05-2.05,3.95,.09,5.93,.22,.73,.58,2.45,0,2.11,1.82l-3.87,.24c-1.64,.53-3.18,.7-4.14-1.18Z"/><path class="cls-173" d="M158.87,170.96l9.99-.14c1.92,.08,3.84,.16,5.76,.24-3.05,2.2-6.55,.07-9.73,1.02-1.46,1.12-3.06,1.24-4.77,.74-.78-.37-1.51-.78-1.25-1.86Z"/><path class="cls-30" d="M37.82,47.76c-.1,2.9-2.28,2.54-3.8,1.95-1.4-.54-2.72-1.93-1.05-3.74,.5-.53,1.11-.61,1.78-.45,1.16,.55,2.04,1.49,3.07,2.23Z"/><path class="cls-138" d="M252.02,286.1c.58,.59,1.17,1.18,1.75,1.77-.35,.96-.93,1.53-2.04,1.12-2.08-2.04-4.85,.91-6.96-.97,2.05-2,4.87-1.12,7.24-1.93Z"/><path class="cls-176" d="M64.8,77.78c.47,2.1-.2,3.8-1.8,5.17-.31,.03-.61,0-.9-.1-.81-1.53-1.29-3.15-1.25-4.9,1.23-1.92,2.62-.53,3.95-.18Z"/><path class="cls-24" d="M209.89,438.85c-.39-.42-.79-.84-1.18-1.25,.52-1.56,1.51-2.79,2.72-3.86,.82-.49,1.61-.56,2.37,.12,.15,2.8-2.16,3.68-3.91,4.99Z"/><path class="cls-99" d="M22.51,50.69c-.1,1.23-.58,2.03-1.72,2.18-1.31,.17-2.29-.53-2.57-1.74-.27-1.21,.82-1.67,1.75-1.94,1.38-.4,2.1,.42,2.53,1.49Z"/><path class="cls-186" d="M19.6,169.9c2.04,2.36,5.15,.49,5.05,3.8-.03,.83-.57,1.52-1.56,1.52-2.57,.01-3.08-1.67-3.49-5.32Z"/><path class="cls-76" d="M98.91,263.83l-.07-2.76c3.73,2.72,3.8,5.22,.2,7.06-.64-1.42,.87-2.89-.12-4.3Z"/><path class="cls-123" d="M217.71,424.81c1.49-2.16,2.4-4.82,5.09-5.96,1.36,4.6-2.41,4.81-5.09,5.96Z"/><path class="cls-62" d="M240.73,170.91c1.34-1.49,2.71-1.35,4.11-.1,1.25,1.85,.38,3.44-.61,5.02-.4,.37-.88,.51-1.42,.43-2.23-1.18-2.18-3.26-2.08-5.35Z"/><path class="cls-100" d="M196.83,453.85c-.06-.6,.14-.99,.8-1.01l2.2,.02c1.19,.67,1.8,1.73,2.06,3.04-4.15,5.41-3.35-1.44-5.06-2.05Z"/><path class="cls-56" d="M294.76,289.91l.03,1.95c-2.44,1.35-3.42-1.12-5.04-1.93,.43-1.06-.81-.77-.98-1.2-.47-1.16,.7-.92,1.03-.8,1.68,.58,3.32,1.31,4.97,1.98Z"/><path class="cls-131" d="M187.96,172.81c-.07-.26-.12-.53-.13-.81,.16-1.11,.32-2.23,.48-3.34,2,.33,3.34,1.63,4.55,3.11-.23,.61-.75,.85-1.32,1.01-.57,.11-1.15,.1-1.73,.06l-1.86-.04Z"/><path class="cls-185" d="M25.87,187.59l1.93,2.11c-.21,1.42,.92,3.17-1.04,4.15-.66-2.71-1.27,.9-1.92,.02l-1.06-1.02,2.09-5.25Z"/><path class="cls-125" d="M18.04,209.91c1.52,.5,.51,2.37,1.67,3.07,.81,1.97-2.04,2.09-1.89,3.72-1.85,.9-1-1.22-1.74-1.56,.25-1.89,.73-3.7,1.96-5.23Z"/><path class="cls-198" d="M3.94,259.92c.35,0,.7-.02,1.05-.03,1.44,1.07,2.02,2.33,.87,3.97-1.89,.12-3.83,.47-5.87-1.12,1.43-1.12,3.81-.61,3.94-2.81Z"/><path class="cls-89" d="M99.06,549.96c-.17,2.48-.73,4.85-2.03,7.01-.35-1.25-.74-2.49-1.03-3.75-.59-2.56,.28-3.82,3.05-3.26Z"/><path class="cls-58" d="M274.73,348.53c.8-2.55,2.24-4.69,4.13-6.54,1.12,3.97-4.08,5.29-3.99,8.95-.05-.8-.1-1.6-.14-2.4Z"/><path class="cls-52" d="M17.95,166.55c.24-1.16,1.02-1.69,2.14-1.61,1.42,.1,2.03,1.09,1.95,2.38-.08,1.14-.86,1.76-2.05,1.6-1.36-.18-1.99-1.04-2.04-2.37Z"/><path class="cls-20" d="M43.07,135.51c-2.06,1.53-2.86,3.86-4.39,5.72,.76-2.4,.49-5.45,4.39-5.72Z"/><path class="cls-62" d="M249.9,170.13c-3.8,2.06,.02,5.26-1.14,7.71-2.13,.28-1.94-1.65-2.64-2.75-.54-1.36-.24-2.8-.39-4.2,.85-3.19,2.84-.17,4.17-.77Z"/><path class="cls-88" d="M236.81,424.88c-.08-.69-.17-1.37-.25-2.06,.32-1.94,.06-4.37,3.26-3.9,.54,.56,.7,1.24,.63,2-.29,1.42-.56,2.85-1.69,3.9-.65,.02-1.3,.04-1.96,.05Z"/><path class="cls-10" d="M207.04,172.04c-2.96,1.27-6.15,.47-9.2,1-1.12,.49-2.08,.66-2.11-1.05,3.78-2.01,7.54,.51,11.31,.04Z"/><path class="cls-50" d="M240.73,170.91c1.72,1.22,.75,3.57,2.08,4.95-2.63,1.41-4-.47-5.47-2.1-.26-.83-.19-1.62,.37-2.32,1.12,.49,2.03-.26,3.02-.53Z"/><path class="cls-122" d="M24.92,265.95c-.94,1.46-2.44,1.38-3.92,1.54-1.1,.12-2.51,.96-2.8-.74-.34-2.06,1.44-1.71,2.7-1.8,1.28,.58,2.92-.28,4.02,1Z"/><path class="cls-94" d="M245.11,473.52c.49-1.22,1.54-1.56,2.7-1.7,1.16-.13,1.93,.36,1.92,1.57,0,1.63-1.2,1.69-2.4,1.57-.97-.1-1.98-.19-2.23-1.44Z"/><path class="cls-167" d="M278.75,341.83c1.53-2.41,2.38-5.3,4.96-6.96-.27,3.31-1.34,6.05-4.96,6.96Z"/><path class="cls-18" d="M200.58,448.75c.66-1.66,1.65-3.08,3.11-4.14,.43,1.17,2.55,1.51,1.92,3.03-1.04,2.53-3.53-.15-5.03,1.11Z"/><path class="cls-87" d="M307.79,298.92c-.11-1.79,3.12-4.23-1.01-5.25-.25-.51-.12-.9,.37-1.17,1.21,.04,2.48-.45,3.6,.4,.96,2.97-1.36,4.32-2.97,6.02Z"/><path class="cls-36" d="M307.93,366.98c.3-1.05,.85-1.81,2.06-1.37,.93,.34,1.82,.86,1.53,2.09-.23,.97-1.04,1.12-1.89,1.1-1.18-.03-1.78-.61-1.71-1.82Z"/><path class="cls-1" d="M232.6,258.53c-1.32-3.02,.17-4.3,2.68-5.85,.33,3.17-2.71,3.76-2.68,5.85Z"/><path class="cls-107" d="M53.88,557.81c1.09,1.13,2.44,2.13,2.04,4.02-1.04-.03-2.08-.07-3.12-.1-.58-1.04-1.16-2.08-1.74-3.12,.49-1.87,1.83-.72,2.82-.8Z"/><path class="cls-85" d="M259.8,169.95l-3.05-.18c.91-1.99-2.2-3.93-.06-5.93,.9,.02,1.66,.29,2.13,1.12-1.21,1.96,.31,3.39,.98,4.99Z"/><path class="cls-190" d="M30.06,72.91c-1.43,.55-2.87,1.08-4.29-.03,.15-1.56-.24-3.38,2.44-3.21,2.52,.16,1.34,2.11,1.85,3.24Z"/><path class="cls-96" d="M214.82,67.99c.25-.54,.4-1.45,.76-1.54,1.08-.26,1.17,.72,1.35,1.49,.89,1.47,.79,2.91-.17,4.31-.51,.61-1.08,1.07-1.95,.75-.35-.63-.69-1.26-1.04-1.89-.15-1.21,.1-2.28,1.05-3.12Z"/><path class="cls-38" d="M245.73,170.89c1.39,.97,1.05,2.46,1.11,3.82-.01,.62-.25,1.14-.65,1.6-.42,.44-.9,.78-1.49,.93-.66-.09-1.08-.37-.93-1.13l1.07-5.31c.3,.03,.59,.06,.89,.09Z"/><path class="cls-118" d="M222.76,418.81c1.03-1.65,1.21-3.83,3.03-5,.95,.39,1.51,.98,1.09,2.09-.27,2.53-1.77,3.32-4.12,2.91Z"/><path class="cls-18" d="M204.86,442.87c1.32,1.27,2.67-3.48,3.98,.02-.92,3.39-2.95,1.74-4.76,1.05l.78-1.06Z"/><path class="cls-28" d="M79.87,308.91c-2.13-2.76,.61-4.22,1.41-6.62,1.5,2.97-.18,4.71-1.35,6.58l-.07,.04Z"/><path class="cls-103" d="M258.82,164.96c-.88-.05-1.7-.22-2.13-1.12,.16-1.7,.98-3.24,2.73-2.27,2.04,1.12,.41,2.38-.6,3.4Z"/><path class="cls-115" d="M176.55,493.57c-.62,.56,.36,2.41-1.42,1.93-.86-.23-2.11-.67-1.9-1.94,.17-1.08,1.14-1.58,2.22-1.62,1.16-.04,1.36,.66,1.1,1.63Z"/><path class="cls-57" d="M2.32,296.79c-.59-2.12-1.35-3.72,.69-4.7,.61-.29,1.38-.03,1.57,.66,.48,1.68-.59,2.63-2.26,4.04Z"/><path class="cls-61" d="M13.15,51.4c0-1.06,.58-1.49,1.5-1.4,1.07,.11,1.76,.79,1.87,1.84,.1,.91-.53,1.68-1.31,1.74-1.44,.12-1.65-1.22-2.06-2.19Z"/><path class="cls-34" d="M211.46,447.23c-.38,1.03-.62,2.27-2.03,2.45-.7,.09-1.3-.23-1.4-1.04-.19-1.56,1.07-1.91,2.11-2.32,.65-.26,1.31-.1,1.32,.9Z"/><path class="cls-93" d="M261.8,449.49c-.99,.05-1.58-.61-1.68-1.4-.15-1.15,.74-1.73,1.75-1.95,.93-.21,1.72,.2,1.64,1.19-.08,.97-.62,1.84-1.7,2.16Z"/><path class="cls-97" d="M237.71,171.44l.24,2.63c.02,.89-.5,1.25-1.29,1.36-1.68-.29-2.45-1.32-2.46-2.99,.1-1.01,.78-1.67,1.44-2.35,.93,.08,1.64,.5,2.07,1.34Z"/><path class="cls-53" d="M235.64,170.09c.09,.78,.14,1.54-.82,1.85-1.29,.63-2.74,.82-4.02,1.48-.46,0-.84-.18-1.13-.53-.04-.28-.02-.56,.06-.84,1.4-2.39,3.69-2.07,5.91-1.96Z"/><path class="cls-23" d="M216.49,440.68c-1.01-.01-1.56-.53-1.44-1.52,.12-1.03,.93-1.25,1.81-1.23,.89,.02,1.72,.31,1.48,1.4-.19,.86-.95,1.29-1.85,1.35Z"/><path class="cls-11" d="M299.81,319.94c1.45,3.97-.88,4.95-2.4,6.33,.64-1.67,1.27-3.35,2.4-6.33Z"/><path class="cls-129" d="M276.8,288.8c-1.35-.01-2.71-.02-4.06-.03-.32-.86-2.08-1.12-1.28-2.3,.56-.83,2.4-.87,2.53-.09,.3,1.85,2.3,1.2,2.81,2.43Z"/><path class="cls-61" d="M45.43,270.32c-.66,1.56-1.55,2.62-3.34,1.92-.56-.22-1.16-1.06-.65-1.63,1.12-1.25,2.5-1.2,3.99-.28Z"/><path class="cls-79" d="M77.81,288.92c-.38,.82-.55,2.07-1.83,1.81-1.15-.24-1.29-1.41-1.3-2.41,0-.93,.46-1.58,1.51-1.42,1.1,.17,1.85,.69,1.62,2.02Z"/><path class="cls-83" d="M217.79,258.9c.07-1.57,.59-2.95,1.8-4.01,1.1,0,2.12,.17,1.31,1.62-.67,1.2-.46,3.71-3.11,2.39Z"/><path class="cls-24" d="M54.51,341.21c.39,1.92,.99,3.42-.69,4.4-.3,.17-1.21-.04-1.28-.27-.55-1.62,.32-2.73,1.97-4.14Z"/><path class="cls-113" d="M59.82,262.82c1.69,.38,3.67-.59,5.09,1.09-1.65,1.26-3.83,1.07-5.42,.79-2.35-.4-.07-1.25,.33-1.88Z"/><path class="cls-47" d="M201.9,455.9c-1.35-.56-2.06-1.56-2.06-3.04,.75-1.03,1.9-1.52,2.71-.53,.96,1.17,.88,2.62-.65,3.57Z"/><path class="cls-7" d="M245.97,215.06c-1.34-2.01-.01-3.26,.53-5.65,1.99,2.92,.14,4.21-.53,5.65Z"/><path class="cls-86" d="M30.13,180.96l-2.15-.02c.64-1.33,1.27-2.66,1.91-4,.63-.52,1.26-.58,1.91-.03-.14,1.52-.73,2.85-1.66,4.05Z"/><path class="cls-109" d="M46.92,261.91l.1-1.76c.46-.73,1.06-.81,1.77-.37,1.55,.33,3.06,.75,4.18,1.99-2.02,.05-4.03,.09-6.05,.14Z"/><path class="cls-63" d="M249.05,190.03c-1.65-.99-1.17-2.65-1.28-4.12,2.26-1.09,2.7,.51,3.12,2.12-.15,1.09-.53,1.97-1.84,2Z"/><path class="cls-64" d="M241.38,536.8c1.15,.14,1.86,.73,1.82,1.59-.04,.86-.79,1.41-1.74,1.43-1.06,.03-1.47-.64-1.45-1.57,.03-.96,.59-1.48,1.37-1.45Z"/><path class="cls-54" d="M239.82,420.82v-1.9c4.03,.96,2.07,3.12,1.01,5.09-2.33-.43-1.5-1.87-1.01-3.19Z"/><path class="cls-81" d="M25.26,314.47c.38-.78,.94-1.38,1.85-1.38,1.02,0,1.42,.77,1.38,1.63-.05,1.01-.81,1.33-1.73,1.23-.87-.09-1.58-.4-1.5-1.49Z"/><path class="cls-51" d="M35.94,260.08l-.02,1.81c-1.03,.41-2.03,.38-3.01-.15-1.38-.33-3.1,.72-4.14-1,2.29-1.28,4.75-.73,7.17-.66Z"/><path class="cls-16" d="M152.08,25.52c2.3-.76,4.03-.62,6.71-.17-2.6,.73-4.12,2.55-6.71,.17Z"/><path class="cls-143" d="M226.88,415.9c-.36-.7-.73-1.39-1.09-2.09,.7-.93,1.4-1.86,2.11-2.78,1.18,1.94,1.24,3.65-1.02,4.87Z"/><path class="cls-77" d="M241.59,533.41c0,1.1-.44,2.01-1.22,2.06-1.02,.06-1.72-.84-2-1.82-.29-1.01,.4-1.57,1.23-1.69,1.13-.16,1.73,.6,1.99,1.45Z"/><path class="cls-36" d="M210.66,463.06c-3.56-.91-3.12-2.88-2.64-4.89,.74,1.37,1.48,2.73,2.64,4.89Z"/><path class="cls-197" d="M213.85,263.91c.33,0,.67,0,1,0-.6,2.5-1.24,4.98-3.04,6.95v-1.76c-1.2-2.47,.16-3.93,2.04-5.19Z"/><path class="cls-8" d="M194.86,50.89c-.7-.61-1.41-1.21-2.11-1.82,1.87-1.15,3.67-1.73,5.08,.67-.75,.23-1.64,.19-2.03,1.1l-.46,.17-.48-.12Z"/><path class="cls-162" d="M77.06,292.91c1.13-.01,1.74,.54,1.78,1.45,.04,.93-.59,1.54-1.54,1.48-.67-.04-1.22-.45-1.34-1.21-.15-.98,.32-1.52,1.1-1.72Z"/><path class="cls-43" d="M250.89,188.03c-1.02-.73-1.44-2.35-3.12-2.12l-.88-1.12c.48-.3,1.02-.48,1.53-.72,.72-.28,1.45-.47,2.17-.02,.31,.72-.07,1.89,1.26,1.95,.09,.87-.04,1.64-.96,2.04Z"/><path class="cls-4" d="M225.29,268.14c-.78,2.07-2.09,2.84-3.98,2.8,1.12-1.02,1.44-3.12,3.98-2.8Z"/><path class="cls-56" d="M228.61,497.49c.69,.2,1.15,.65,1.07,1.37-.12,1.15-.92,1.69-1.98,1.52-.67-.11-.95-.8-.73-1.5,.25-.78,.66-1.44,1.64-1.38Z"/><path class="cls-97" d="M247.79,398.85c-1.22-1.07-3.25-1.74-1.94-4.03,2.66,.37,1.8,2.44,1.94,4.03Z"/><path class="cls-140" d="M60.85,77.96c1.19,1.44,2.01,2.96,1.25,4.9-2.04-1.22-3.8-2.51-1.25-4.9Z"/><path class="cls-15" d="M214.81,73.01l1.09-1.05c1.24-.6,2.18-2.37,3.91-.97-.95,2.45-2.34,3.81-5,2.02Z"/><path class="cls-150" d="M34.96,45.98c-.66,0-1.33,0-1.99-.01,.58-3.18,1.91-3.6,4.03-1.09-.35,.97-.91,1.56-2.04,1.1Z"/><path class="cls-166" d="M56.77,369.75c-.19,1.56-.52,3.07-1.71,4.23q-1.27-4.7,1.71-4.23Z"/><path class="cls-127" d="M128.83,448.83c.11,2.29-.59,4.35-1.73,6.29,.13-2.22-1.85-5.03,1.73-6.29Z"/><path class="cls-9" d="M219.81,70.98c-1.3,.32-2.61,.65-3.91,.97,.34-1.34,.68-2.67,1.02-4.01,1.17,.81,2.92,1.08,2.89,3.03Z"/><path class="cls-51" d="M56.95,109c-.21,1.84-.8,3.53-2.06,4.94,1.35-1.37-3.83-5.47,2.06-4.94Z"/><path class="cls-5" d="M243.86,203.01c0-2.66,.01-5.32,.02-7.98,.7-.49,1.08-.04,1.44,.49,.38,.75-.07,1.61,.3,2.36l-1.77,5.13Z"/><path class="cls-41" d="M214.82,67.99c-.01,1.15,.08,2.34-1.05,3.12-1.04-.07-2.1-.3-1.96-1.61,.2-1.91,1.71-1.59,3.01-1.51Z"/><path class="cls-195" d="M34.96,45.98l2.04-1.1c1.17,.7,.52,1.92,.82,2.87-1.72,.64-2.53-.17-2.86-1.77Z"/><path class="cls-112" d="M220.83,285.91c-.34,.67-.68,1.35-1.01,2.02-1.33-.06-2.67-.11-4-.17,.64-1.32,3.15-.57,3.04-2.73,.84-.11,1.52,.14,1.98,.87Z"/><path class="cls-141" d="M93.08,39.62c.88,.55,1.78,.54,2.71,.15-.47,1.32-.72,2.8-2.31,3.48-1.05-1.16-.41-2.43-.39-3.62Z"/><path class="cls-106" d="M261.29,536.04c.27,.3,.98,.71,1.03,1.19,.08,.89-.61,1.55-1.53,1.36-.52-.11-1.27-.69-1.33-1.14-.13-.92,.59-1.38,1.83-1.41Z"/><path class="cls-67" d="M261.69,426.99c-.44,1.11-1.26,1.05-2.04,.82-.73-.21-.92-.83-.81-1.54,.16-.97,.68-1.46,1.67-1.1,.87,.31,1.16,1.05,1.18,1.82Z"/><path class="cls-57" d="M54.82,374.84c-1.12,3.13,2.72,2.23,3.26,4.01-.83,.98-2.25,.05-3.1,.97-2.11-1.59-1.46-3.28-.16-4.98Z"/><path class="cls-198" d="M195.73,172l2.11,1.05c-.82,1.05-1.96,.92-3.09,.84-.92-1.36-3.47,.96-3.82-1.69l1.93-.41c.95,.07,1.91,.15,2.86,.22Z"/><path class="cls-78" d="M54.98,379.82c.72-1.31,2.03-.75,3.1-.97l2.02-.86c.48,.38,1.23,.68,1.38,1.17,.28,.93-.66,.82-1.18,.82-1.77,0-3.54-.1-5.31-.16Z"/><path class="cls-133" d="M234.31,433.8c-.69-.07-1.31-.34-1.17-1.13,.15-.81,.66-1.52,1.62-1.36,.33,.05,.75,.56,.84,.93,.23,.98-.34,1.46-1.29,1.56Z"/><path class="cls-141" d="M243.85,411.93c-.88-1.58-.68-2.88,1.33-2.95,1.68-.06,.75,1.22,.64,2.01,0,1.68-.91,1.46-1.96,.93Z"/><path class="cls-90" d="M64.84,378.07c2.78-.29,5.52-.11,8.21,.67-2.79,.48-5.57,.81-8.21-.67Z"/><path class="cls-72" d="M31.8,176.91c-.64,.01-1.27,.02-1.91,.03-2.32-3.14,2.54-1.32,2.15-3.13,1.33,1.14,.22,2.09-.25,3.09Z"/><path class="cls-146" d="M86.92,564.86c-.97,.03-1.67-.3-1.62-1.33,.04-.72,.6-1.19,1.32-1.09,.85,.11,1.56,.67,1.66,1.53,.11,1-.87,.67-1.36,.89Z"/><path class="cls-106" d="M58.86,47.37c1.1-.04,1.03,.98,1.36,1.62,.36,.71-.03,1.34-.69,1.45-1.05,.17-1.23-.77-1.39-1.52-.14-.63-.06-1.26,.72-1.55Z"/><path class="cls-32" d="M213.8,433.86l-2.37-.12,1.37-1.89c1.82,.73,3.45,1.6,2.98,4.02-.66-.67-1.31-1.34-1.97-2.01Z"/><path class="cls-98" d="M68.73,303.31c.19,.84-.1,1.35-.84,1.47-.79,.13-1.67,.15-1.86-.89-.15-.81,.03-1.67,1.03-1.81,.94-.14,1.38,.57,1.67,1.23Z"/><path class="cls-136" d="M266.03,443.12c.8,.29,1.36,.79,1.34,1.71-.02,.83-.71,1.09-1.31,1.07-.92-.04-1.37-.66-1.27-1.61,.08-.74,.54-1.09,1.24-1.17Z"/><path class="cls-50" d="M53.9,115.95c.26,1.75-.22,3.17-1.81,4.11-.66-1.93-1.35-3.87,1.81-4.11Z"/><path class="cls-87" d="M78.62,273.07c.23,.29,.96,.82,.9,1.25-.11,.88-.95,1.28-1.84,1.14-.78-.12-.98-.75-.83-1.46,.16-.75,.69-1.03,1.76-.93Z"/><path class="cls-182" d="M310.76,292.9l-3.97,.24c-1.04-.03-2.58,1.26-2.77-1.04,2.25-.06,4.5-.11,6.75-.17,.11,.32,.12,.64,0,.97Z"/><path class="cls-64" d="M47.91,54.53c-.44,1-.96,1.46-1.58,.85-.41-.4-.75-1.17-.66-1.7,.12-.73,.98-.91,1.52-.51,.42,.32,.55,1.03,.71,1.36Z"/><path class="cls-8" d="M61.11,306.78c-1.28-.45-2.79-1.07-2.55-2.56,.24-1.48,1.53-.56,2.4-.29,.73,.92,.84,1.87,.15,2.86Z"/><path class="cls-87" d="M61.11,306.78c-.05-.95-.1-1.9-.15-2.86,1.21-.22,2.41,.02,2.48,1.36,.07,1.37-1.11,1.68-2.33,1.5Z"/><path class="cls-94" d="M32.88,58.59c-.17,.89-.66,1.27-1.35,1.27-.65,0-1.38-.25-1.14-1.06,.24-.81,1.02-1.25,1.87-1.14,.27,.04,.46,.67,.62,.93Z"/><path class="cls-3" d="M21.55,546.86s-.53,.36-1.13,.52c-.74,.2-1.34-.22-1.09-.96,.16-.5,.79-.97,1.32-1.2,.5-.22,.86,.2,.9,1.64Z"/><path class="cls-83" d="M40.95,544.47c.86,.46,1.84,.64,1.57,1.71-.07,.29-.76,.65-1.11,.6-.86-.11-1.52-.65-1.31-1.63,.06-.29,.6-.48,.86-.68Z"/><path class="cls-192" d="M179.93,123.08c-.4-1.27-2-2.39-1.11-3.73,.35-.53,1.67,.33,1.98,1.38l-.86,2.35Z"/><path class="cls-11" d="M75.9,316.93c-.98,1.65-1.97,3.3-2.95,4.95,.04-2.21,.08-4.43,2.95-4.95Z"/><path class="cls-74" d="M231.93,427.8c.28-2.85,2.45-1.81,4.04-1.96-.74,1.91-2.27,2.18-4.04,1.96Z"/><path class="cls-65" d="M243.85,411.93c.76-.08,1.61,.02,1.96-.94,2.39-.05,1.35,1.49,.72,2.1-1.53,1.49-2.16,.11-2.68-1.16Z"/><path class="cls-128" d="M220.07,23.83c.06,.14-.38-.45-.42-1.07-.06-.97,.84-.74,1.4-.74,.63,0,1.42,.03,1.41,.92-.01,.84-.69,.98-2.4,.88Z"/><path class="cls-103" d="M148.99,5c.44,1.03,1.08,2.34-.27,2.9-1.69,.7-1-1.57-1.93-1.98-.26-.47-.22-.9,.18-1.27,.75-.31,1.43-.23,2.02,.35Z"/><path class="cls-101" d="M28.77,260.73c1.36,.41,3.02-.42,4.14,1-.35,.35-.7,.69-1.05,1.04-.97,.1-1.93,.2-2.9,.3-.66-.73-.65-1.5-.13-2.3l-.06-.04Z"/><path class="cls-84" d="M83,269.77c1.24,.11,2.62-.06,3.32,1.29,.12,.24-.21,.98-.51,1.12-1.3,.63-1.71-1.18-2.84-1.15-.25-.28-.33-.57-.24-.84,.09-.28,.18-.41,.27-.41Z"/><path class="cls-66" d="M72.95,264.04c-1.76-.11-3.51-.22-5.27-.33,2.05-.71,4.1-1.46,6.02,.1-.26,.04-.51,.12-.75,.23Z"/><path class="cls-35" d="M174.79,21.04c.47,.19,1.51-.2,1.16,.94-.11,.36-.7,.67-1.13,.8-.66,.2-1.42,.05-1.48-.77-.07-.9,.76-.88,1.45-.97Z"/><path class="cls-85" d="M9.47,267.06c.83,.19,1.07,.55,.78,1.03-.31,.51-.67,1.23-1.13,1.34-.95,.23-.96-.58-.68-1.16,.24-.5,.74-.88,1.03-1.21Z"/><path class="cls-33" d="M75.75,270.78c1.63-1.13,2.04-1.12,2.06-.47,.04,.93-.49,1.49-1.41,1.46-.39-.01-.77-.39-1.15-.6,.54-.42,1.08-.85,.5-.39Z"/><path class="cls-4" d="M39.09,265.62c1.61-.83,2.43-.82,3.12-.25,.42,.35,.33,1.11-.16,1.11-.74,0-1.49-.4-2.95-.86Z"/><path class="cls-2" d="M24.92,265.95c-1.38-.2-2.95,.4-4.02-1,.33-.32,.66-.65,1-.98,.69,0,1.39,0,2.09,0,.31,.66,.63,1.32,.94,1.98Z"/><path class="cls-61" d="M263.75,372.21c.86-.1,1.07,.56,1.08,1.15,0,.38-.34,1.04-.63,1.11-.63,.14-1.21-.22-1.35-.94-.14-.71,.18-1.17,.91-1.32Z"/><path class="cls-64" d="M83,269.77c0,.42-.02,.84-.03,1.26-1.2,.88-2.43,.29-2.37-.79,.06-1.1,1.31-1.66,2.4-.47Z"/><path class="cls-121" d="M56.97,7.82c-.41,.28-.83,.77-1.07,.69-.35-.11-.77-.6-.81-.97-.07-.7,.37-1.29,1.14-1.04,.31,.1,.44,.75,.73,1.31Z"/><path class="cls-102" d="M210.87,275.13c-.29-.09-.6-.14-.9-.15,.28-1.22,.51-2.47,1.69-3.23,.7,1.35,2.11,2.86-.78,3.38Z"/><path class="cls-103" d="M5.87,263.86c.28-1.45-.25-2.72-.87-3.97l1.08-1.21c1.19,1.57,.74,3.44,.94,5.19-.38,0-.76,0-1.14-.01Z"/><path class="cls-28" d="M135.48,381.16c.05,.89-.25,1.23-.81,.95-.52-.26-1.11-.66-1.34-1.15-.22-.47,.32-.95,.84-.74,.54,.21,.97,.69,1.31,.94Z"/><path class="cls-25" d="M55.31,384.65c1.67-1.03,2.48,.72,3.7,.49-1.43,1.21-2.48,.61-3.7-.49Z"/><path class="cls-35" d="M44.21,550.5c-.17,.72-.68,1.09-1.35,1-.41-.06-1-.33-1.14-.66-.38-.92,.43-.96,1.01-.99,.57-.04,1.25-.13,1.48,.66Z"/><path class="cls-169" d="M148.99,5l-2.08,.18c-.61-.16-.73-.8-1.13-1.17-.28-1.04,.15-1.76,1.02-2.28l1.19,1.19c.33,.69,.66,1.38,.99,2.07Z"/><path class="cls-72" d="M79.93,309.73c-1.31,.92,.73,2.99-.96,3.43-.82,.21-1.04-1.34-1.14-2.29,.7-.38,1.4-.76,2.1-1.14Z"/><path class="cls-105" d="M11.98,71.64c-.16,.57-.19,1.32-1.13,1.18-.79-.12-1.04-.76-.96-1.41,.07-.64,.37-1.32,1.2-1.23,.84,.08,.83,.8,.89,1.47Z"/><path class="cls-116" d="M243.84,404.14c-.24-1-1.17-2.11,.38-2.85,.24-.12,.71-.14,.87,.01,1,.95-.15,1.69-.32,2.54-.32,.07-.63,.17-.94,.3Z"/><path class="cls-20" d="M78.63,522.28c.2,.28,.72,.71,.87,1.24,.16,.55-.38,.83-.86,.55-.49-.29-1.07-.7-1.25-1.2-.17-.46,.38-.75,1.24-.6Z"/><path class="cls-13" d="M204.11,82.87c.05,.95-.43,1.04-.94,.98-.75-.09-1.18-.57-1.2-1.31-.01-.5,.15-1.13,.83-.79,.55,.27,.96,.82,1.3,1.12Z"/><path class="cls-59" d="M44.99,298.12c-.58,.39-1.18,1.09-1.58,.99-.73-.18-.67-1.02-.38-1.64,.28-.6,.77-1.14,1.47-.78,.28,.15,.3,.82,.49,1.43Z"/><path class="cls-142" d="M266.96,208.05c-2.03,1.08-2.92,1.04-3.69,.29-.12-.12-.04-.7,.13-.82,1.06-.77,1.63,.38,3.56,.53Z"/><path class="cls-89" d="M31.91,90.27c.09-.8,.64-1.09,1.29-.83,.34,.14,.7,.72,.71,1.11,0,.6-.25,1.29-1.11,1.12-.73-.14-.93-.71-.89-1.4Z"/><path class="cls-120" d="M234.73,420.49c-.12,.73-.52,1.24-1.28,1.02-.39-.11-.67-.63-.99-.96,.49-.34,.94-.83,1.49-.98,.59-.17,.79,.37,.78,.92Z"/><path class="cls-126" d="M53.87,96.42c-.07,.87-.31,1.66-1.27,1.84-.12,.02-.62-.78-.53-1.07,.18-.58,.53-1.25,1.02-1.54,.61-.37,.7,.31,.78,.77Z"/><path class="cls-35" d="M292.5,322.76c.27-1.35,1.03-2.36,2.15-3.12,.44,1.84,1.11,3.83-2.15,3.12Z"/><path class="cls-71" d="M217.34,272.99c.75,.63,1.39,1.24,1.2,2.16-.06,.3-.72,.75-1.01,.69-.91-.19-1.44-.85-1.1-1.82,.14-.4,.59-.69,.9-1.03Z"/><path class="cls-66" d="M231.82,466.91c0,.84-.59,1.2-1.22,.98-.53-.18-1.13-.71-1.33-1.23-.26-.66,.2-1.22,.99-1.19,.89,.04,1.47,.5,1.56,1.44Z"/><path class="cls-104" d="M82.22,276.36c.49,.38,1.01,.58,1.17,.95,.32,.74-.03,1.34-.87,1.23-.39-.05-.89-.55-1.01-.94-.08-.28,.4-.73,.71-1.23Z"/><path class="cls-147" d="M165.91,168.01c-1.02-.02-2.04-.03-3.05-.05,1-.64,2-1.27,3-1.91,.45,.1,1.21,.09,1.28,.31,.31,.99-.62,1.23-1.23,1.65Z"/><path class="cls-32" d="M253.34,443.57c-.88-.15-1.01-.61-.75-1.02,.31-.48,.81-.82,1.23-1.23,.2,.34,.65,.81,.55,1.01-.25,.51-.74,.91-1.04,1.24Z"/><path class="cls-31" d="M223.55,448.92c1.2,.48,1.8,.84,1.62,1.57-.08,.34-.64,.56-.98,.84-.35-.47-.84-.9-1-1.43-.1-.33,.29-.81,.35-.98Z"/><path class="cls-32" d="M80.44,265.26c-1.18-.17-2.36-.35-4.35-.64,2.11-.93,3.31-.85,4.35,.64Z"/><path class="cls-141" d="M38.56,146.67c.43,2.74,.38,3.84-1.62,5.34l1.62-5.34Z"/><path class="cls-130" d="M240.74,446.24c.36-.38,.64-.94,.95-.95,.89-.04,.99,.7,.9,1.38-.06,.5-.36,1.04-.96,.75-.36-.17-.55-.7-.89-1.18Z"/><path class="cls-145" d="M249.76,446.32c-.14,.9-.57,1.39-1.28,1.17-.29-.09-.56-.76-.55-1.17,.01-.72,.56-1.2,1.25-1.02,.29,.08,.43,.74,.58,1.01Z"/><path class="cls-17" d="M195.9,143.59c1.03-.79,2.05-.86,3.07-.16-1,.95-2.05,.34-3.07,.16Z"/><path class="cls-124" d="M172.61,143.39c.9-.66,1.78-.59,2.64-.06,.06,.03-.1,.67-.3,.79-1.01,.61-1.75,.19-2.34-.74Z"/><path class="cls-33" d="M256.96,138.1c-.27,.14-.65,.46-1.05,.49-.52,.04-.91-.39-.63-.88,.18-.31,.7-.56,1.09-.59,.44-.04,.93,.18,.59,.99Z"/><path class="cls-162" d="M39.98,157.01c-.28-.35-.56-.7-.84-1.05-.16-.85-.17-1.64,.83-2,1.76,1.01,.8,2.04,0,3.06Z"/><path class="cls-127" d="M123.34,454.19c.55-.42,.88-.85,1.24-.88,.27-.03,.59,.45,.89,.7-.31,.27-.59,.69-.95,.77-.28,.06-.66-.3-1.18-.58Z"/><path class="cls-44" d="M213.78,49.94c-1.68,.14-3.41,.6-4.88-.71,1.66,0,3.57-1.66,4.88,.71Z"/><path class="cls-19" d="M243.5,468.82c.41-.21,.82-.57,1.23-.57,.57,0,.86,.57,.51,1-.25,.3-.85,.36-1.31,.41-.09,.01-.25-.47-.43-.84Z"/><path class="cls-165" d="M219.64,471.73c.16,.86-.29,1.1-.78,1.09-.45-.01-1.21-.16-1.28-.41-.21-.74,.38-1.19,1.05-1.21,.37-.01,.75,.39,1,.53Z"/><path class="cls-141" d="M222.51,282.09c-1.17,.8-1.52,1.12-1.58,1.07-.5-.4-1.13-.78-1.35-1.33-.27-.65,.35-.75,.84-.59,.64,.21,1.26,.5,2.09,.85Z"/><path class="cls-137" d="M212.2,475.66c-.89-.29-.82-.73-.61-1.16,.26-.52,.46-1.28,1.3-.82,.22,.12,.47,.65,.39,.78-.32,.48-.77,.87-1.08,1.2Z"/><path class="cls-30" d="M109.57,480.24c-.21,.23-.45,.7-.81,.83-.6,.22-.84-.3-.73-.77,.09-.38,.4-.88,.72-1,.5-.18,.85,.19,.82,.93Z"/><path class="cls-1" d="M214.57,482.73c-.31,.28-.68,.67-.71,.65-.34-.27-.78-.57-.88-.95-.14-.49,.12-1.08,.78-.78,.36,.16,.54,.71,.81,1.08Z"/><path class="cls-123" d="M239.82,420.82c.17,1.12-.44,2.48,1.01,3.19-.69,.27-1.38,.54-2.07,.81,.32-1.34-.46-2.98,1.06-4Z"/><path class="cls-198" d="M245.63,197.88c-.26-.66-.52-1.32-.78-1.98,.55-.57,.14-1.6,.99-2.03l.99,2.09-1.2,1.92Z"/><path class="cls-8" d="M301.68,202.77c-.52,.47-.79,.91-1.12,.97-.33,.06-.73-.27-1.1-.42,.28-.33,.5-.8,.85-.94,.28-.11,.72,.19,1.38,.4Z"/><path class="cls-82" d="M20.03,83.2c-.26,.51-.37,1.15-.69,1.28-1.06,.45-.98-.37-.87-1.01,.07-.4,.3-.78,.46-1.16l1.1,.89Z"/><path class="cls-60" d="M272.48,513.58c-.3-.53-.68-.89-.66-1.23,.02-.41,.32-1.08,.6-1.13,.78-.16,1.21,.44,1.09,1.15-.06,.38-.56,.69-1.04,1.22Z"/><path class="cls-194" d="M16.08,215.14l1.74,1.56c-.08,1.25-.95,1.8-1.99,2.18l.24-3.75Z"/><path class="cls-21" d="M251.09,407.94c-.41,.19-.84,.54-1.24,.53-.56-.03-.81-.61-.45-1.01,.27-.3,.86-.34,1.31-.39,.08,0,.22,.49,.38,.87Z"/><path class="cls-127" d="M42.87,71.35c-.09,.64-.18,1.22-.81,.94-.36-.16-.71-.64-.8-1.04-.13-.56,.34-.95,.85-.77,.35,.12,.56,.63,.77,.87Z"/><path class="cls-13" d="M141.47,395.33c.74-.14,1.09,.19,1.02,.69-.06,.38-.36,.87-.69,1.05-.62,.34-.82-.24-.78-.68,.03-.39,.32-.76,.46-1.06Z"/><path class="cls-139" d="M81.99,541.03c-.24,.13-.61,.5-1.01,.53-.54,.04-.93-.41-.63-.93,.19-.34,.7-.63,1.1-.67,.46-.04,.96,.21,.55,1.07Z"/><path class="cls-69" d="M68.54,283.81c0,.9-.23,1.49-.93,1.67-.64,.16-.76-.38-.79-.84-.03-.63,0-1.36,.81-1.43,.31-.03,.67,.43,.91,.6Z"/><path class="cls-190" d="M145.78,4.01c.38,.39,.75,.78,1.13,1.17-.08,.24-.12,.49-.12,.74-.83-.28-.85,1.75-1.69,.76-.74-.88,.25-1.81,.67-2.67Z"/><path class="cls-14" d="M263.63,386.96c.46,.51,.9,.78,.96,1.11,.06,.33-.27,.73-.43,1.1-.33-.27-.81-.49-.94-.84-.11-.28,.2-.72,.41-1.38Z"/><path class="cls-1" d="M262.04,386.04c-.43,.15-.88,.49-1.28,.43-.55-.08-.72-.7-.33-1.06,.29-.27,.87-.26,1.33-.28,.07,0,.16,.51,.28,.91Z"/><path class="cls-91" d="M37.73,63.88c-.15-.12-.73-.45-.69-.62,.14-.56,.37-1.24,.81-1.57,.68-.5,1.13-.07,1.13,.72,0,.66-.22,1.24-1.24,1.46Z"/><path class="cls-68" d="M129.98,444.96c.09,1.43,.28,2.89-1.07,3.92,.8-1.19-2.6-3.52,1.07-3.92Z"/><path class="cls-61" d="M211.99,58.06c-.09-.58,.09-.99,.72-1.09l3.59,.21c-1.54,1.48-3,.7-4.31,.88Z"/><path class="cls-156" d="M139.21,28.34c.84,.18,.71,.85,.7,1.43,0,.68-.27,1.22-1.01,1.36-.93,.18-1.07-.53-1.11-1.14-.05-.94,.62-1.38,1.42-1.66Z"/><path class="cls-42" d="M93.99,378.02c.58,.59,1.17,1.18,1.75,1.76-1.45,.34-2.71-.12-3.88-.94,.45-.93,1.24-1,2.12-.83Z"/><path class="cls-57" d="M218.45,31.76c-.5-.82-.82-1.27-1.05-1.77-.3-.64,.2-.9,.65-.89,.4,0,1.15,.36,1.13,.48-.08,.59-.36,1.16-.73,2.17Z"/><path class="cls-28" d="M315.43,371.47c.11,.03,.83,.1,.88,.31,.18,.85-.52,1.06-1.15,.98-.39-.05-.99-.43-1.04-.73-.11-.67,.53-.57,1.32-.55Z"/><path class="cls-76" d="M69.02,328.99c.29,.27,.59,.55,.88,.82-.29-.27-.59-.55-.88-.82Z"/><path class="cls-163" d="M245.84,193.87c-.06,.81-.18,1.59-.99,2.03-.32-.29-.65-.58-.97-.87-.04-.44-.07-.89-.11-1.33-.78-1.47-1.12-3.12-1.86-4.61-.48-1.08-1.25-2.07-.98-3.37,4.7,.86,4.69,4.58,4.91,8.14Z"/><path class="cls-73" d="M164.96,172.73c2.28,.46,4.73,.02,6.89,1.2-3.5,2.15-7.32,.24-10.94,.84-.65-.73-.57-1.44,.05-2.13,1.34-.24,2.67-.35,4,.08Z"/><path class="cls-160" d="M230.95,173.03c.97-1.51,2.4-1.37,3.87-1.08-.11,1.56,.76,2.47,2.05,3.1,.3,.31,.44,.67,.38,1.1-.16,.4-.45,.66-.87,.78-2.46,.11-3.94-1.6-5.56-3.03-.35-.25-.45-.47-.3-.64,.14-.15,.28-.23,.43-.23Z"/><path class="cls-154" d="M213.85,263.91c-.74,1.71-2.01,3.2-2.04,5.19-.83,.4-1.66,.8-3.4,1.64,2.14-4.26,3.86-7.71,5.72-11.4,1.25,1.93-.56,3.13-.27,4.57Z"/><path class="cls-80" d="M230.95,173.03c-.15,.28-.19,.57-.13,.88-2.95,1.03-6.01,.92-9.06,.85-.64-.52-1.72-.03-2.2-.93,3.24-1.74,6.77-.24,10.11-.92l1.29,.13Z"/><path class="cls-81" d="M64.02,348.91c1.58,.26,1.81-1.8,3.2-1.86-.77,3.57-2.24,6.85-4.29,9.86,.36-2.67,.73-5.33,1.09-8Z"/><path class="cls-45" d="M236.38,176.94l.35-.11,.09-.38c3.16-1.07,3.68-.52,3.57,3.75-.18,.22-.37,.45-.55,.67-2.46-.17-3.54-1.54-3.45-3.94Z"/><path class="cls-178" d="M225.82,234.91c.34,4.11-2.15,7.08-4.83,9.99,1.61-3.32,3.23-6.65,4.84-9.97l-.02-.02Z"/><path class="cls-65" d="M28.83,260.77c.04,.77,.09,1.54,.13,2.3-2.7-.08-5.41-.17-8.11-.25,2.49-1.35,5.11-2.2,7.98-2.05Z"/><path class="cls-159" d="M304.01,292.09c.69,.98,1.78,.87,2.77,1.04,0,.18,0,.35,0,.53-2.79-.2-5.92,1.34-8.17-1.62l5.4,.05Z"/><path class="cls-6" d="M244.88,182.01c-.45,2.14-2.94,1.6-3.95,3-.65-1.3-2.99-2.15-1.09-4.13l-.1,.06c2.07-1.34,3.63-.26,5.15,1.07Z"/><path class="cls-115" d="M206.83,283.91c.31,0,.63,.03,.94,.08,.72,1.61,.56,3.97,3.3,3.86,.33,.7,.33,1.36-.25,1.94-1.72-.03-3.56,1.3-5.11-.48-.65-2.01,.09-3.74,1.12-5.41Z"/><path class="cls-72" d="M210.82,289.79l.03-1.71c.24-1.14,1.37-1.4,2.06-2.1l.05,.06c1.2-.01,1.91,.49,1.89,1.78-1.56,.22,3.09,2.33-.6,1.95-1.13-.12-2.29,.01-3.43,.03Z"/><path class="cls-70" d="M186.85,49.95c1.19,1.05,2.72,.92,4.14,1.18-2.62,1.23-5.4,.44-8.31,.41,.67-.49,1.34-.98,2.02-1.47,.72-.04,1.43-.08,2.15-.11Z"/><path class="cls-194" d="M91.87,261.1c-.3-.08-.58-.19-.85-.33-.71-1.84,1.33-.95,1.71-1.71,2.35-.41,4.47-.02,6.21,1.75-.99,.09-1.99,.18-2.98,.27-1.36,.85-2.72,.39-4.08,.02Z"/><path class="cls-144" d="M206.83,283.91c.21,1.92-.25,3.71-1.12,5.41-4.12-1.93-.17-3.61,.16-5.4,.32-.02,.64-.02,.96,0Z"/><path class="cls-48" d="M92.72,259.06c-.57,.57-1.14,1.14-1.71,1.71-1.05-.2-2.08-.34-3.03,.33-1.05-.66-2.1-1.32-3.15-1.98,2.63-.02,5.26-.04,7.88-.07Z"/><path class="cls-55" d="M251.74,289c.68-.37,1.36-.75,2.04-1.12,.93,.34,1.63,.93,2.01,1.87-1.82,2.27-2.96,.93-4.04-.75Z"/><path class="cls-162" d="M158.87,170.96l1.07,1.17c.25,.41,.22,.81-.04,1.2-.62,.62-1.49,.92-2.05,1.61-.57,.08-1.44,.7-1.64-.06-.45-1.69,.45-2.98,1.82-3.94,.29-.18,.57-.17,.85,.03Z"/><path class="cls-61" d="M162.8,167.96c-1.04,1.61-2.66,.72-4.02,.94-.25-1.73,1.65-1.85,2.22-2.97l1.81,2.03Z"/><path class="cls-157" d="M158.43,99.57c-2.1,.07-2.69-1.2-3.53-2.86,1.96,.29,2.72,1.35,3.53,2.86Z"/><path class="cls-174" d="M225.84,234.92c.13-1.8,.91-3.22,2.42-4.21-.15,1.79-.52,3.45-2.43,4.19l.02,.02Z"/><path class="cls-33" d="M72.91,325.89l3.23-.93c-.06,1.7-1.36,2.7-2.24,3.93-.85-.43-.93-1.23-.99-2.04,0-.32,0-.64,0-.96Z"/><path class="cls-185" d="M77.02,51.88c1.96-1.37,3.91-1.43,5.83,.06-1.95-.02-3.89-.04-5.83-.06Z"/><path class="cls-180" d="M100.22,53.26c-1.28,1.01-2.51,.89-3.88,.93,.95-2.06,2.38-.98,3.88-.93Z"/><path class="cls-184" d="M231.59,386.85c-.27,1.24-1,2-2.66,2.54,.48-1.62,.7-2.85,2.66-2.54Z"/><path class="cls-191" d="M48.79,259.78c-.59,.12-1.18,.24-1.77,.37-.39-.12-.78-.23-1.17-.35,.51-2.14,1.53-2.45,3.08-.85,.03,.29-.02,.57-.14,.83Z"/><path class="cls-178" d="M150.5,405.29c.43,1.99-.11,2.96-1.22,3.79-.73-1.5,.19-2.41,1.22-3.79Z"/><path class="cls-177" d="M107.34,535.11c-.59-.99-.75-2.31,.08-2.59,1.66-.57,1.17,.69,.8,1.51-.18,.39-.55,.69-.88,1.08Z"/><path class="cls-183" d="M225.26,205.49c-.2-1.63,.4-2.47,1.66-3.43,.3,1.57-.19,2.47-1.66,3.43Z"/><path class="cls-152" d="M64.36,93.51c-.66-1.78,.15-3.41,.73-3.38,1.67,.07,.38,1.22,.23,1.89-.09,.42-.49,.78-.96,1.49Z"/><path class="cls-62" d="M165.22,490.96c-.11-1.79,.45-3.32,1.21-3.27,1.74,.12,.59,1.28,.2,1.98-.21,.38-.66,.62-1.42,1.29Z"/><path class="cls-161" d="M241.91,189.1c1.33,1.25,1.83,2.83,1.86,4.61-1.69-1.1-2.05-2.74-1.86-4.61Z"/><path class="cls-196" d="M157.85,174.93c.05-1.38,.9-1.95,2.14-2.12,.38-.31,.65-.24,.82,.22,.03,.58,.06,1.17,.1,1.75-1.02,.05-2.04,.1-3.06,.15Z"/><path class="cls-39" d="M190.94,172.19c.92,1.37,3,.11,3.82,1.69-1.68-.16-3.6,.78-4.93-1.03,.14-.6,.55-.77,1.12-.66Z"/><path class="cls-184" d="M163.26,105.59c-.1-.72,.09-1.24,.66-1.13,.33,.06,.65,.62,.79,1.01,.07,.2-.25,.55-.39,.83l-1.05-.71Z"/><path class="cls-53" d="M219.56,173.82c.73,.31,1.47,.62,2.2,.93-.94,.07-1.88,.21-2.82,.18-.46-.02-1.48,.31-1.13-.73,.1-.29,1.14-.26,1.75-.38Z"/><path class="cls-29" d="M24.84,193.86l1.64-2.33,.28,2.31-.95,1.01-.97-.99Z"/><path class="cls-168" d="M82.75,323.67l-1.15,2.51c-.2-.1-.56-.17-.58-.3-.18-1.09,.42-1.84,1.73-2.21Z"/><path class="cls-181" d="M178.43,61.62c-.53,.45-.83,.89-1.2,.96-.28,.05-.64-.38-.97-.6,.29-.29,.54-.73,.89-.83,.3-.08,.7,.24,1.28,.46Z"/><path class="cls-153" d="M248.57,184.79c-.56,0-1.12,0-1.68,0,1.31-1.73-.17-3.24-.37-4.86-.95-1.22-1.84-2.44-.69-4.02,.34-.4,.68-.8,1.01-1.2,1.54,.49,.39,2.62,1.91,3.12,.03,.43,.06,.86,.09,1.29,.48,1.92,1.21,3.85-.28,5.67Z"/><path class="cls-187" d="M248.57,184.79c.09-1.89,.18-3.78,.28-5.67,1.88,.78,.22,3.18,1.86,4.08-.03,.28-.07,.56-.12,.84-.67,.25-1.35,.5-2.02,.75Z"/><path class="cls-170" d="M244.88,182.01c-1.72-.36-3.43-.71-5.15-1.07-.12-2.05,.82-4.79-2.92-4.48,.02-.47,.04-.94,.06-1.4l1.09-.98c2.11-.73,2.73,2.55,4.85,1.79,.32,.08,.64,.17,.97,.25,.3,.32,.6,.64,.9,.96,.96,.85,.93,1.82,.35,2.86l-.15,2.07Z"/><path class="cls-86" d="M245.02,179.94c-.12-.95-.24-1.91-.35-2.86l1.16-1.16c.23,1.34,.46,2.68,.69,4.02h-1.5Z"/><path class="cls-95" d="M53.88,557.81c-.94,.27-1.88,.54-2.82,.8-.7-.94-1.41-1.87-2.11-2.81,1.44-.29,2.69,.24,3.92,.87,.34,.38,.67,.75,1.01,1.13Z"/><path class="cls-98" d="M91.87,261.1c1.36,0,2.72-.01,4.08-.02-1.34,3.39-2.72,.49-4.08,.02Z"/><path class="cls-106" d="M160.81,173.03c-.26-.11-.54-.18-.82-.22-.03-.23-.04-.46-.04-.68,1.65-.01,3.3-.03,4.94-.04,.01,.22,.04,.43,.07,.65-1.38,.1-2.77,.2-4.15,.3Z"/></svg>